<svg width="63" height="63" viewBox="0 0 63 63" fill="none" xmlns="http://www.w3.org/2000/svg">
<circle cx="31.5" cy="31.5" r="31.5" fill="white" fill-opacity="0.01"/>
<mask id="mask0_339_523" style="mask-type:luminance" maskUnits="userSpaceOnUse" x="20" y="21" width="24" height="23">
<path d="M29.1901 41.7947C27.5147 41.2945 25.9973 40.369 24.7858 39.1084C25.1756 38.646 25.4186 38.0779 25.4837 37.4767C25.5488 36.8754 25.433 36.2684 25.1511 35.7334C24.8693 35.1983 24.4342 34.7595 23.9016 34.4731C23.369 34.1867 22.763 34.0657 22.1612 34.1257C22.0241 33.4542 21.9552 32.7705 21.9556 32.0851C21.9556 31.0266 22.1176 30.0055 22.4195 29.0463H22.462C22.9785 29.0464 23.4865 28.9149 23.9381 28.6642C24.3896 28.4135 24.7698 28.0519 25.0428 27.6134C25.3158 27.175 25.4725 26.6742 25.4981 26.1583C25.5238 25.6425 25.4175 25.1286 25.1894 24.6652C26.3769 23.5595 27.813 22.7557 29.3764 22.3218C29.6309 22.8214 30.0186 23.2408 30.4966 23.5337C30.9747 23.8267 31.5244 23.9816 32.0851 23.9815C32.6457 23.9816 33.1955 23.8267 33.6735 23.5337C34.1516 23.2408 34.5393 22.8214 34.7937 22.3218C36.3572 22.7557 37.7933 23.5595 38.9807 24.6652C38.751 25.1319 38.6448 25.6496 38.6724 26.169C38.7 26.6884 38.8605 27.192 39.1384 27.6317C39.4164 28.0713 39.8025 28.4322 40.2599 28.6799C40.7173 28.9276 41.2306 29.0537 41.7506 29.0463C42.0591 30.0297 42.2155 31.0544 42.2146 32.0851C42.2146 32.784 42.1437 33.4668 42.009 34.1262C41.4072 34.0662 40.8012 34.1872 40.2686 34.4736C39.7359 34.76 39.3008 35.1988 39.019 35.7339C38.7372 36.2689 38.6214 36.8759 38.6865 37.4772C38.7516 38.0784 38.9946 38.6466 39.3844 39.1089C38.1728 40.3694 36.6554 41.2947 34.9801 41.7947C34.7833 41.1815 34.397 40.6467 33.8767 40.2672C33.3564 39.8877 32.7291 39.6832 32.0851 39.6832C31.4411 39.6832 30.8137 39.8877 30.2935 40.2672C29.7732 40.6467 29.3868 41.1815 29.1901 41.7947Z" fill="white" stroke="white" stroke-width="2.51457" stroke-linejoin="round"/>
<path d="M32.0849 35.6304C32.5505 35.6304 33.0115 35.5387 33.4416 35.3606C33.8718 35.1824 34.2626 34.9213 34.5918 34.592C34.921 34.2628 35.1822 33.872 35.3603 33.4419C35.5385 33.0117 35.6302 32.5507 35.6302 32.0851C35.6302 31.6195 35.5385 31.1585 35.3603 30.7284C35.1822 30.2982 34.921 29.9074 34.5918 29.5782C34.2626 29.249 33.8718 28.9878 33.4416 28.8097C33.0115 28.6315 32.5505 28.5398 32.0849 28.5398C31.1446 28.5398 30.2428 28.9133 29.578 29.5782C28.9131 30.2431 28.5396 31.1448 28.5396 32.0851C28.5396 33.0254 28.9131 33.9272 29.578 34.592C30.2428 35.2569 31.1446 35.6304 32.0849 35.6304Z" fill="black" stroke="black" stroke-width="2.51457" stroke-linejoin="round"/>
</mask>
<g mask="url(#mask0_339_523)">
<path d="M19.9297 19.9297H44.2405V44.2405H19.9297V19.9297Z" fill="#4D4D4D"/>
</g>
</svg>
