<svg width="16" height="16" viewBox="0 0 16 16" fill="none" xmlns="http://www.w3.org/2000/svg">
<path d="M5 8.5H1.5V12C1.5 12.663 1.76339 13.2989 2.23223 13.7678C2.70107 14.2366 3.33696 14.5 4 14.5H7.5V11C7.5 10.337 7.23661 9.70107 6.76777 9.23223C6.29893 8.76339 5.66304 8.5 5 8.5Z" fill="#FAFAFA"/>
<path d="M2 4C2 3.46957 2.21071 2.96086 2.58579 2.58579C2.96086 2.21071 3.46957 2 4 2H6.5C6.63261 2 6.75979 1.94732 6.85355 1.85355C6.94732 1.75979 7 1.63261 7 1.5C7 1.36739 6.94732 1.24021 6.85355 1.14645C6.75979 1.05268 6.63261 1 6.5 1H4C3.20435 1 2.44129 1.31607 1.87868 1.87868C1.31607 2.44129 1 3.20435 1 4V12C1 12.7956 1.31607 13.5587 1.87868 14.1213C2.44129 14.6839 3.20435 15 4 15H12C12.7956 15 13.5587 14.6839 14.1213 14.1213C14.6839 13.5587 15 12.7956 15 12V9.5C15 9.36739 14.9473 9.24021 14.8536 9.14645C14.7598 9.05268 14.6326 9 14.5 9C14.3674 9 14.2402 9.05268 14.1464 9.14645C14.0527 9.24021 14 9.36739 14 9.5V12C14 12.5304 13.7893 13.0391 13.4142 13.4142C13.0391 13.7893 12.5304 14 12 14H8V11C8 10.2044 7.68393 9.44129 7.12132 8.87868C6.55871 8.31607 5.79565 8 5 8H2V4ZM2 9H5C5.53043 9 6.03914 9.21071 6.41421 9.58579C6.78929 9.96086 7 10.4696 7 11V14H4C3.46957 14 2.96086 13.7893 2.58579 13.4142C2.21071 13.0391 2 12.5304 2 12V9Z" fill="#555555"/>
<path d="M9.50001 1C9.3674 1 9.24022 1.05268 9.14645 1.14645C9.05268 1.24021 9.00001 1.36739 9.00001 1.5C9.00001 1.63261 9.05268 1.75979 9.14645 1.85355C9.24022 1.94732 9.3674 2 9.50001 2H13.293L9.14601 6.146C9.09952 6.19249 9.06264 6.24768 9.03748 6.30842C9.01232 6.36916 8.99937 6.43426 8.99937 6.5C8.99937 6.56574 9.01232 6.63084 9.03748 6.69158C9.06264 6.75232 9.09952 6.80751 9.14601 6.854C9.19249 6.90049 9.24768 6.93736 9.30842 6.96252C9.36916 6.98768 9.43426 7.00063 9.50001 7.00063C9.56575 7.00063 9.63085 6.98768 9.69159 6.96252C9.75233 6.93736 9.80752 6.90049 9.85401 6.854L14 2.707V6.5C14 6.63261 14.0527 6.75979 14.1465 6.85355C14.2402 6.94732 14.3674 7 14.5 7C14.6326 7 14.7598 6.94732 14.8536 6.85355C14.9473 6.75979 15 6.63261 15 6.5V1.5C15 1.36739 14.9473 1.24021 14.8536 1.14645C14.7598 1.05268 14.6326 1 14.5 1H9.50001Z" fill="#005FB8"/>
</svg>
