<svg width="53" height="53" viewBox="0 0 53 53" fill="none" xmlns="http://www.w3.org/2000/svg">
<g clip-path="url(#clip0_35_432)">
<g clip-path="url(#clip1_35_432)">
<g clip-path="url(#clip2_35_432)">
<mask id="mask0_35_432" style="mask-type:luminance" maskUnits="userSpaceOnUse" x="12" y="12" width="30" height="29">
<path d="M12.6899 12.09H41.2799V40.68H12.6899V12.09Z" fill="white"/>
</mask>
<g mask="url(#mask0_35_432)">
<path fill-rule="evenodd" clip-rule="evenodd" d="M36.9084 17.5344C35.0577 16.6605 33.0789 16.0254 31.0101 15.6638C30.756 16.1274 30.4592 16.7509 30.2545 17.247C28.0553 16.9132 25.8763 16.9132 23.7176 17.247C23.513 16.7509 23.2094 16.1274 22.9529 15.6638C20.8819 16.0254 18.9008 16.6628 17.0501 17.539C13.3173 23.232 12.3054 28.7834 12.8113 34.2562C15.2872 36.1221 17.6865 37.2556 20.0454 37.9974C20.6278 37.1885 21.1473 36.3284 21.5947 35.4221C20.7425 35.0953 19.9262 34.692 19.1549 34.2238C19.3596 34.0707 19.5597 33.9108 19.7531 33.7462C24.4573 35.9669 29.5687 35.9669 34.2167 33.7462C34.4124 33.9108 34.6125 34.0707 34.8148 34.2238C34.0413 34.6942 33.2227 35.0976 32.3705 35.4244C32.818 36.3284 33.3352 37.1908 33.9199 37.9997C36.281 37.258 38.6826 36.1245 41.1584 34.2562C41.7521 27.9119 40.1443 22.4114 36.9084 17.5344ZM22.2332 30.8907C20.821 30.8907 19.6629 29.5602 19.6629 27.9399C19.6629 26.3197 20.7963 24.9869 22.2332 24.9869C23.6701 24.9869 24.8282 26.3173 24.8035 27.9399C24.8058 29.5602 23.6701 30.8907 22.2332 30.8907ZM29.1627 27.9399C29.1627 29.5602 30.3208 30.8907 31.7329 30.8907C33.1699 30.8907 34.3033 29.5602 34.3033 27.9399C34.3279 26.3173 33.1699 24.9869 31.7329 24.9869C30.296 24.9869 29.1627 26.3197 29.1627 27.9399Z" fill="#BCBCBC"/>
</g>
</g>
</g>
</g>
<defs>
<clipPath id="clip0_35_432">
<rect width="28.59" height="28.59" fill="white" transform="translate(12.6899 12.09)"/>
</clipPath>
<clipPath id="clip1_35_432">
<rect width="28.59" height="28.59" fill="white" transform="translate(12.6899 12.09)"/>
</clipPath>
<clipPath id="clip2_35_432">
<rect width="28.59" height="28.59" fill="white" transform="translate(12.6899 12.09)"/>
</clipPath>
</defs>
</svg>
