<svg width="16" height="16" viewBox="0 0 16 16" fill="none" xmlns="http://www.w3.org/2000/svg">
<g clip-path="url(#clip0_185_54)">
<path d="M3 2.5H9V13.5H3C2.6717 13.5 2.34661 13.4353 2.04329 13.3097C1.73998 13.1841 1.46438 12.9999 1.23223 12.7678C0.763392 12.2989 0.5 11.663 0.5 11V5C0.5 4.33696 0.763392 3.70107 1.23223 3.23223C1.70107 2.76339 2.33696 2.5 3 2.5ZM13 2.5H12V13.5H13C13.663 13.5 14.2989 13.2366 14.7678 12.7678C15.2366 12.2989 15.5 11.663 15.5 11V5C15.5 4.33696 15.2366 3.70107 14.7678 3.23223C14.2989 2.76339 13.663 2.5 13 2.5Z" fill="#FAFAFA"/>
<path d="M9 2.5H3C2.6717 2.5 2.34661 2.56466 2.04329 2.6903C1.73998 2.81594 1.46438 3.00009 1.23223 3.23223C0.763392 3.70107 0.5 4.33696 0.5 5V11C0.5 11.663 0.763392 12.2989 1.23223 12.7678C1.46438 12.9999 1.73998 13.1841 2.04329 13.3097C2.34661 13.4353 2.6717 13.5 3 13.5H9M12 2.5H13C13.663 2.5 14.2989 2.76339 14.7678 3.23223C15.2366 3.70107 15.5 4.33696 15.5 5V11C15.5 11.663 15.2366 12.2989 14.7678 12.7678C14.2989 13.2366 13.663 13.5 13 13.5H12" stroke="#555555"/>
<path d="M8.5 0.5H10.5M10.5 0.5H12.5M10.5 0.5V15.5M8.5 15.5H10.5M10.5 15.5H12.5" stroke="#005FB8" stroke-linecap="round"/>
<path fill-rule="evenodd" clip-rule="evenodd" d="M5.50001 4C5.59587 3.99994 5.68971 4.02743 5.77038 4.0792C5.85105 4.13097 5.91514 4.20484 5.95501 4.292L8.70501 10.292C8.73233 10.3518 8.74761 10.4163 8.74998 10.482C8.75235 10.5476 8.74176 10.6131 8.71883 10.6747C8.69589 10.7362 8.66105 10.7927 8.6163 10.8408C8.57155 10.8889 8.51777 10.9277 8.45801 10.955C8.39826 10.9823 8.33372 10.9976 8.26806 11C8.2024 11.0023 8.13692 10.9917 8.07536 10.9688C8.01379 10.9459 7.95735 10.911 7.90925 10.8663C7.86115 10.8215 7.82233 10.7678 7.79501 10.708L7.12701 9.25H3.87301L3.20501 10.708C3.1777 10.7678 3.13888 10.8215 3.09078 10.8663C3.04268 10.911 2.98623 10.9459 2.92467 10.9688C2.8631 10.9917 2.79762 11.0023 2.73197 11C2.66631 10.9976 2.60177 10.9823 2.54201 10.955C2.48226 10.9277 2.42848 10.8889 2.38373 10.8408C2.33898 10.7927 2.30414 10.7362 2.2812 10.6747C2.25827 10.6131 2.24768 10.5476 2.25005 10.482C2.25242 10.4163 2.2677 10.3518 2.29501 10.292L5.04501 4.292C5.08499 4.20491 5.1491 4.13111 5.22975 4.07936C5.31039 4.0276 5.40419 4.00006 5.50001 4ZM5.50001 5.7L4.33101 8.25H6.67001L5.50001 5.7Z" fill="#005FB8"/>
</g>
<defs>
<clipPath id="clip0_185_54">
<rect width="16" height="16" fill="white"/>
</clipPath>
</defs>
</svg>
