<svg width="200" height="73" viewBox="0 0 200 73" fill="none" xmlns="http://www.w3.org/2000/svg">
<path d="M13.2301 18.0354H15.354L8.58407 24.0531H0L24.646 0.601746L13.2301 18.0354Z" fill="#BCBCBC"/>
<path d="M26.9469 17.9911L11.5487 31.8849H3.09735L18.3628 17.9911H26.9469Z" fill="#BCBCBC"/>
<path d="M21.3717 25.7787L14.823 31.8407H16.6372L5.35398 49.0531L30 25.7787H21.3717Z" fill="#BCBCBC"/>
<path d="M5.78906 69.2094C4.47298 69.2094 3.34945 68.746 2.41846 67.8192C1.4917 66.8882 1.02832 65.7647 1.02832 64.4486C1.02832 63.1325 1.4917 62.0111 2.41846 61.0844C3.34945 60.1534 4.47298 59.6879 5.78906 59.6879C7.10091 59.6879 8.22021 60.1534 9.14697 61.0844C10.078 62.0111 10.5435 63.1325 10.5435 64.4486C10.5435 65.7647 10.078 66.8882 9.14697 67.8192C8.22021 68.746 7.10091 69.2094 5.78906 69.2094ZM5.78906 60.2465C4.62956 60.2465 3.63932 60.6569 2.81836 61.4779C1.9974 62.2989 1.58691 63.2891 1.58691 64.4486C1.58691 65.6081 1.9974 66.5983 2.81836 67.4193C3.63932 68.236 4.62956 68.6444 5.78906 68.6444C6.94857 68.6444 7.93669 68.236 8.75342 67.4193C9.57438 66.5983 9.98486 65.6081 9.98486 64.4486C9.98486 63.2891 9.57438 62.2989 8.75342 61.4779C7.93669 60.6569 6.94857 60.2465 5.78906 60.2465ZM7.50928 66.9115C7.06494 67.2035 6.5402 67.3495 5.93506 67.3495C5.12256 67.3495 4.44124 67.085 3.89111 66.556C3.34098 66.0271 3.06592 65.3648 3.06592 64.5692C3.06592 63.6467 3.34733 62.9104 3.91016 62.3602C4.47298 61.8101 5.20508 61.535 6.10645 61.535C6.61849 61.535 7.07764 61.6472 7.48389 61.8715V62.8236C7.11995 62.5189 6.63542 62.3666 6.03027 62.3666C5.43359 62.3666 4.94059 62.557 4.55127 62.9379C4.16618 63.3187 3.97363 63.8308 3.97363 64.474C3.97363 65.1003 4.17041 65.6018 4.56396 65.9784C4.96175 66.355 5.46533 66.5433 6.07471 66.5433C6.6333 66.5433 7.11149 66.3783 7.50928 66.0482V66.9115ZM20.0459 62.2841C20.0459 62.0048 20.0015 61.7614 19.9126 61.5541C19.828 61.3467 19.7095 61.1753 19.5571 61.0399C19.409 60.9003 19.2334 60.7966 19.0303 60.7289C18.8271 60.6612 18.6071 60.6273 18.3701 60.6273C18.167 60.6273 17.9681 60.6548 17.7734 60.7098C17.5788 60.7649 17.3883 60.841 17.2021 60.9384C17.0202 61.0357 16.8424 61.1521 16.6689 61.2875C16.4997 61.4229 16.341 61.5731 16.1929 61.7382V60.621C16.4849 60.3374 16.8107 60.1216 17.1704 59.9735C17.5343 59.8212 17.9766 59.745 18.4971 59.745C18.8695 59.745 19.2144 59.8 19.5317 59.91C19.8491 60.0158 20.1242 60.1724 20.3569 60.3798C20.5897 60.5871 20.7716 60.8431 20.9028 61.1478C21.0382 61.4525 21.106 61.8016 21.106 62.1952C21.106 62.5549 21.0636 62.8807 20.979 63.1727C20.8986 63.4647 20.7738 63.7398 20.6045 63.9979C20.4395 64.2561 20.23 64.5036 19.9761 64.7406C19.7222 64.9776 19.4238 65.2188 19.0811 65.4642C18.6536 65.7689 18.3003 66.0292 18.021 66.245C17.7459 66.4608 17.5259 66.6639 17.3608 66.8544C17.2 67.0406 17.0858 67.2289 17.0181 67.4193C16.9546 67.6055 16.9229 67.8213 16.9229 68.0668H21.4551V68.9999H15.8374V68.5492C15.8374 68.1599 15.8797 67.8171 15.9644 67.5209C16.049 67.2247 16.1886 66.9432 16.3833 66.6766C16.578 66.41 16.8319 66.1434 17.145 65.8768C17.4624 65.6102 17.8496 65.3098 18.3066 64.9755C18.6367 64.7385 18.9118 64.5121 19.1318 64.2963C19.3561 64.0804 19.536 63.8646 19.6714 63.6488C19.8068 63.433 19.902 63.215 19.957 62.995C20.0163 62.7707 20.0459 62.5337 20.0459 62.2841ZM28.6279 64.4105C28.6279 65.1722 28.5581 65.8472 28.4185 66.4354C28.283 67.0236 28.0841 67.5209 27.8218 67.9271C27.5636 68.3291 27.2441 68.6359 26.8633 68.8475C26.4867 69.0549 26.0571 69.1586 25.5747 69.1586C25.1177 69.1586 24.7093 69.0591 24.3496 68.8602C23.9941 68.6571 23.6937 68.363 23.4482 67.9779C23.2028 67.5928 23.0166 67.121 22.8896 66.5624C22.7627 65.9996 22.6992 65.3563 22.6992 64.6327C22.6992 63.8371 22.7648 63.1346 22.896 62.5253C23.0314 61.9159 23.2282 61.406 23.4863 60.9955C23.7445 60.5808 24.064 60.2697 24.4448 60.0624C24.8299 59.8508 25.27 59.745 25.7651 59.745C27.6737 59.745 28.6279 61.3002 28.6279 64.4105ZM27.5615 64.5121C27.5615 61.9222 26.9458 60.6273 25.7144 60.6273C24.4152 60.6273 23.7656 61.9455 23.7656 64.5819C23.7656 67.0406 24.4025 68.2699 25.6763 68.2699C26.9331 68.2699 27.5615 67.0173 27.5615 64.5121ZM34.0615 62.2841C34.0615 62.0048 34.0171 61.7614 33.9282 61.5541C33.8436 61.3467 33.7251 61.1753 33.5728 61.0399C33.4246 60.9003 33.249 60.7966 33.0459 60.7289C32.8428 60.6612 32.6227 60.6273 32.3857 60.6273C32.1826 60.6273 31.9837 60.6548 31.7891 60.7098C31.5944 60.7649 31.404 60.841 31.2178 60.9384C31.0358 61.0357 30.8581 61.1521 30.6846 61.2875C30.5153 61.4229 30.3566 61.5731 30.2085 61.7382V60.621C30.5005 60.3374 30.8263 60.1216 31.186 59.9735C31.55 59.8212 31.9922 59.745 32.5127 59.745C32.8851 59.745 33.23 59.8 33.5474 59.91C33.8647 60.0158 34.1398 60.1724 34.3726 60.3798C34.6053 60.5871 34.7873 60.8431 34.9185 61.1478C35.0539 61.4525 35.1216 61.8016 35.1216 62.1952C35.1216 62.5549 35.0793 62.8807 34.9946 63.1727C34.9142 63.4647 34.7894 63.7398 34.6201 63.9979C34.4551 64.2561 34.2456 64.5036 33.9917 64.7406C33.7378 64.9776 33.4395 65.2188 33.0967 65.4642C32.6693 65.7689 32.3159 66.0292 32.0366 66.245C31.7616 66.4608 31.5415 66.6639 31.3765 66.8544C31.2157 67.0406 31.1014 67.2289 31.0337 67.4193C30.9702 67.6055 30.9385 67.8213 30.9385 68.0668H35.4707V68.9999H29.853V68.5492C29.853 68.1599 29.8953 67.8171 29.98 67.5209C30.0646 67.2247 30.2043 66.9432 30.3989 66.6766C30.5936 66.41 30.8475 66.1434 31.1606 65.8768C31.478 65.6102 31.8652 65.3098 32.3223 64.9755C32.6523 64.7385 32.9274 64.5121 33.1475 64.2963C33.3717 64.0804 33.5516 63.8646 33.687 63.6488C33.8224 63.433 33.9176 63.215 33.9727 62.995C34.0319 62.7707 34.0615 62.5337 34.0615 62.2841ZM41.5645 59.8973V65.9086H42.7324V66.8607H41.5645V68.9999H40.5361V66.8607H36.2578V65.9594C36.6556 65.5108 37.0576 65.0326 37.4639 64.5248C37.8701 64.0127 38.2573 63.4943 38.6255 62.9696C38.9979 62.4449 39.3407 61.9222 39.6538 61.4017C39.9712 60.877 40.2378 60.3755 40.4536 59.8973H41.5645ZM37.4321 65.9086H40.5361V61.4525C40.2188 62.0069 39.9183 62.502 39.6348 62.9379C39.3512 63.3737 39.0804 63.7694 38.8223 64.1249C38.5684 64.4803 38.325 64.802 38.0923 65.0897C37.8595 65.3775 37.6395 65.6504 37.4321 65.9086ZM54.1328 68.619C53.46 68.9745 52.6221 69.1522 51.6191 69.1522C50.3242 69.1522 49.2874 68.7354 48.5088 67.9017C47.7301 67.0681 47.3408 65.9742 47.3408 64.62C47.3408 63.1643 47.7788 61.9878 48.6548 61.0907C49.5308 60.1936 50.6416 59.745 51.9873 59.745C52.8506 59.745 53.5658 59.8698 54.1328 60.1195V61.2557C53.4811 60.8918 52.7617 60.7098 51.9746 60.7098C50.9294 60.7098 50.0809 61.059 49.4292 61.7572C48.7817 62.4554 48.458 63.3885 48.458 64.5565C48.458 65.6652 48.7606 66.5497 49.3657 67.2098C49.9751 67.8658 50.7728 68.1937 51.7588 68.1937C52.6729 68.1937 53.4642 67.9906 54.1328 67.5844V68.619ZM58.5635 69.1522C57.6029 69.1522 56.8348 68.8497 56.2593 68.2445C55.688 67.6351 55.4023 66.829 55.4023 65.826C55.4023 64.7343 55.7007 63.8816 56.2974 63.2679C56.894 62.6543 57.7002 62.3475 58.7158 62.3475C59.6849 62.3475 60.4403 62.6459 60.9819 63.2426C61.5278 63.8392 61.8008 64.6665 61.8008 65.7245C61.8008 66.7613 61.5067 67.5928 60.9185 68.2191C60.3345 68.8412 59.5495 69.1522 58.5635 69.1522ZM58.6396 63.2235C57.971 63.2235 57.4421 63.452 57.0527 63.9091C56.6634 64.3619 56.4688 64.9882 56.4688 65.788C56.4688 66.5581 56.6655 67.1654 57.0591 67.6097C57.4526 68.0541 57.9795 68.2762 58.6396 68.2762C59.3125 68.2762 59.8288 68.0583 60.1885 67.6224C60.5524 67.1866 60.7344 66.5666 60.7344 65.7626C60.7344 64.9501 60.5524 64.3238 60.1885 63.8837C59.8288 63.4436 59.3125 63.2235 58.6396 63.2235ZM64.5303 68.0604H64.5049V71.9896H63.4639V62.4999H64.5049V63.6425H64.5303C65.0423 62.7792 65.7913 62.3475 66.7773 62.3475C67.6152 62.3475 68.269 62.6395 68.7388 63.2235C69.2085 63.8033 69.4434 64.5819 69.4434 65.5594C69.4434 66.647 69.1789 67.5188 68.6499 68.1747C68.1209 68.8264 67.3973 69.1522 66.479 69.1522C65.6369 69.1522 64.9873 68.7883 64.5303 68.0604ZM64.5049 65.4388V66.3466C64.5049 66.884 64.6784 67.341 65.0254 67.7177C65.3766 68.09 65.821 68.2762 66.3584 68.2762C66.9889 68.2762 67.4819 68.035 67.8374 67.5526C68.1971 67.0702 68.377 66.3995 68.377 65.5404C68.377 64.8168 68.2098 64.2497 67.8755 63.8392C67.5412 63.4288 67.0884 63.2235 66.5171 63.2235C65.9119 63.2235 65.4253 63.4351 65.0571 63.8583C64.689 64.2772 64.5049 64.8041 64.5049 65.4388ZM76.2798 62.4999L73.29 70.0409C72.7568 71.3866 72.0078 72.0594 71.043 72.0594C70.7721 72.0594 70.5457 72.0319 70.3638 71.9769V71.0438C70.5881 71.12 70.7933 71.1581 70.9795 71.1581C71.5042 71.1581 71.8978 70.8449 72.1602 70.2186L72.6807 68.9872L70.1416 62.4999H71.2969L73.0552 67.5018C73.0763 67.5653 73.1208 67.7303 73.1885 67.9969H73.2266C73.2477 67.8954 73.29 67.7346 73.3535 67.5145L75.2007 62.4999H76.2798ZM80.793 63.5536C80.611 63.4139 80.3486 63.3441 80.0059 63.3441C79.5615 63.3441 79.1891 63.5536 78.8887 63.9725C78.5924 64.3915 78.4443 64.9628 78.4443 65.6864V68.9999H77.4033V62.4999H78.4443V63.8392H78.4697C78.6178 63.3822 78.8442 63.0267 79.1489 62.7728C79.4536 62.5147 79.7943 62.3856 80.1709 62.3856C80.4417 62.3856 80.6491 62.4152 80.793 62.4745V63.5536ZM82.4561 60.8495C82.2699 60.8495 82.1112 60.786 81.98 60.6591C81.8488 60.5321 81.7832 60.3713 81.7832 60.1766C81.7832 59.982 81.8488 59.8212 81.98 59.6942C82.1112 59.563 82.2699 59.4974 82.4561 59.4974C82.6465 59.4974 82.8073 59.563 82.9385 59.6942C83.0739 59.8212 83.1416 59.982 83.1416 60.1766C83.1416 60.3628 83.0739 60.5215 82.9385 60.6527C82.8073 60.7839 82.6465 60.8495 82.4561 60.8495ZM82.9639 68.9999H81.9229V62.4999H82.9639V68.9999ZM90.6191 68.4794C90.6191 70.8661 89.4766 72.0594 87.1914 72.0594C86.3874 72.0594 85.6849 71.9071 85.084 71.6024V70.5614C85.8161 70.9677 86.5143 71.1708 87.1787 71.1708C88.7783 71.1708 89.5781 70.3202 89.5781 68.619V67.9081H89.5527C89.0576 68.7375 88.3128 69.1522 87.3184 69.1522C86.5101 69.1522 85.8584 68.8645 85.3633 68.2889C84.8724 67.7092 84.627 66.9327 84.627 65.9594C84.627 64.8549 84.8914 63.9768 85.4204 63.3251C85.9536 62.6734 86.6815 62.3475 87.604 62.3475C88.48 62.3475 89.1296 62.6988 89.5527 63.4012H89.5781V62.4999H90.6191V68.4794ZM89.5781 66.0609V65.1024C89.5781 64.5861 89.4025 64.1439 89.0513 63.7758C88.7043 63.4076 88.2705 63.2235 87.75 63.2235C87.1068 63.2235 86.6032 63.4584 86.2393 63.9281C85.8753 64.3936 85.6934 65.0474 85.6934 65.8895C85.6934 66.6132 85.8669 67.1929 86.2139 67.6288C86.5651 68.0604 87.0285 68.2762 87.604 68.2762C88.188 68.2762 88.6619 68.0689 89.0259 67.6542C89.394 67.2395 89.5781 66.7084 89.5781 66.0609ZM98.1221 68.9999H97.0811V65.2548C97.0811 63.9006 96.5775 63.2235 95.5703 63.2235C95.0625 63.2235 94.6351 63.4203 94.2881 63.8138C93.9411 64.2032 93.7676 64.7046 93.7676 65.3182V68.9999H92.7266V59.3768H93.7676V63.579H93.793C94.2923 62.758 95.0033 62.3475 95.9258 62.3475C97.39 62.3475 98.1221 63.2299 98.1221 64.9945V68.9999ZM103.105 68.9364C102.86 69.0718 102.536 69.1395 102.134 69.1395C100.995 69.1395 100.426 68.5048 100.426 67.2352V63.3885H99.3091V62.4999H100.426V60.913L101.467 60.5765V62.4999H103.105V63.3885H101.467V67.0511C101.467 67.487 101.541 67.7981 101.689 67.9843C101.838 68.1705 102.083 68.2635 102.426 68.2635C102.688 68.2635 102.915 68.1916 103.105 68.0477V68.9364ZM109.129 68.0604H109.104V68.9999H108.062V59.3768H109.104V63.6425H109.129C109.641 62.7792 110.39 62.3475 111.376 62.3475C112.21 62.3475 112.861 62.6395 113.331 63.2235C113.805 63.8033 114.042 64.5819 114.042 65.5594C114.042 66.647 113.778 67.5188 113.249 68.1747C112.72 68.8264 111.996 69.1522 111.078 69.1522C110.219 69.1522 109.569 68.7883 109.129 68.0604ZM109.104 65.4388V66.3466C109.104 66.884 109.277 67.341 109.624 67.7177C109.975 68.09 110.42 68.2762 110.957 68.2762C111.588 68.2762 112.081 68.035 112.436 67.5526C112.796 67.0702 112.976 66.3995 112.976 65.5404C112.976 64.8168 112.808 64.2497 112.474 63.8392C112.14 63.4288 111.687 63.2235 111.116 63.2235C110.511 63.2235 110.024 63.4351 109.656 63.8583C109.288 64.2772 109.104 64.8041 109.104 65.4388ZM120.878 62.4999L117.889 70.0409C117.355 71.3866 116.606 72.0594 115.642 72.0594C115.371 72.0594 115.144 72.0319 114.962 71.9769V71.0438C115.187 71.12 115.392 71.1581 115.578 71.1581C116.103 71.1581 116.496 70.8449 116.759 70.2186L117.279 68.9872L114.74 62.4999H115.896L117.654 67.5018C117.675 67.5653 117.719 67.7303 117.787 67.9969H117.825C117.846 67.8954 117.889 67.7346 117.952 67.5145L119.799 62.4999H120.878ZM132.514 68.3778C131.6 68.8941 130.584 69.1522 129.467 69.1522C128.168 69.1522 127.116 68.7333 126.312 67.8954C125.512 67.0575 125.112 65.9488 125.112 64.5692C125.112 63.16 125.557 62.0048 126.445 61.1034C127.338 60.1978 128.468 59.745 129.835 59.745C130.825 59.745 131.657 59.9058 132.33 60.2274V61.4081C131.593 60.9426 130.722 60.7098 129.714 60.7098C128.694 60.7098 127.859 61.0611 127.207 61.7635C126.555 62.466 126.229 63.3759 126.229 64.493C126.229 65.6441 126.532 66.5497 127.137 67.2098C127.742 67.8658 128.563 68.1937 129.6 68.1937C130.311 68.1937 130.927 68.052 131.447 67.7684V65.2167H129.454V64.2518H132.514V68.3778ZM141.159 68.9999H139.89L138.366 66.4481C138.227 66.2111 138.091 66.0101 137.96 65.8451C137.829 65.6758 137.693 65.5383 137.554 65.4325C137.418 65.3267 137.27 65.2505 137.109 65.204C136.953 65.1532 136.775 65.1278 136.576 65.1278H135.7V68.9999H134.634V59.8973H137.351C137.748 59.8973 138.114 59.9481 138.449 60.0497C138.787 60.147 139.079 60.2972 139.325 60.5004C139.574 60.7035 139.769 60.9574 139.909 61.2621C140.048 61.5625 140.118 61.9159 140.118 62.3221C140.118 62.6395 140.069 62.9315 139.972 63.1981C139.879 63.4605 139.744 63.6954 139.566 63.9027C139.392 64.1101 139.181 64.2878 138.931 64.4359C138.686 64.5798 138.409 64.6919 138.1 64.7723V64.7977C138.252 64.8654 138.383 64.9437 138.493 65.0326C138.607 65.1172 138.715 65.2188 138.817 65.3373C138.918 65.4558 139.018 65.5912 139.115 65.7435C139.217 65.8916 139.329 66.0651 139.452 66.264L141.159 68.9999ZM135.7 60.8622V64.163H137.147C137.414 64.163 137.66 64.1228 137.884 64.0424C138.112 63.962 138.309 63.8477 138.474 63.6996C138.639 63.5472 138.768 63.3632 138.861 63.1473C138.954 62.9273 139.001 62.6818 139.001 62.411C139.001 61.9244 138.842 61.5456 138.525 61.2748C138.212 60.9997 137.757 60.8622 137.16 60.8622H135.7ZM145.958 69.1522C144.667 69.1522 143.633 68.7269 142.854 67.8763C142.08 67.0258 141.692 65.9191 141.692 64.5565C141.692 63.0923 142.088 61.9244 142.879 61.0526C143.671 60.1809 144.748 59.745 146.11 59.745C147.367 59.745 148.379 60.1682 149.145 61.0145C149.915 61.8609 150.3 62.9675 150.3 64.3344C150.3 65.8197 149.906 66.994 149.119 67.8573C148.332 68.7206 147.278 69.1522 145.958 69.1522ZM146.034 60.7098C145.078 60.7098 144.301 61.0547 143.705 61.7445C143.108 62.4343 142.81 63.3399 142.81 64.4613C142.81 65.5827 143.099 66.4862 143.679 67.1718C144.263 67.8531 145.023 68.1937 145.958 68.1937C146.957 68.1937 147.744 67.8679 148.319 67.2162C148.895 66.5645 149.183 65.6525 149.183 64.4803C149.183 63.2785 148.903 62.3497 148.345 61.6937C147.786 61.0378 147.016 60.7098 146.034 60.7098ZM158.749 65.3182C158.749 67.8742 157.595 69.1522 155.289 69.1522C153.08 69.1522 151.976 67.9229 151.976 65.4642V59.8973H153.042V65.3944C153.042 67.2606 153.829 68.1937 155.403 68.1937C156.923 68.1937 157.682 67.2924 157.682 65.4896V59.8973H158.749V65.3182ZM162.094 65.5594V68.9999H161.027V59.8973H163.528C164.502 59.8973 165.255 60.1343 165.788 60.6083C166.326 61.0822 166.594 61.7509 166.594 62.6141C166.594 63.4774 166.296 64.1841 165.699 64.7343C165.107 65.2844 164.305 65.5594 163.293 65.5594H162.094ZM162.094 60.8622V64.5946H163.211C163.947 64.5946 164.508 64.4274 164.893 64.0931C165.282 63.7546 165.477 63.2785 165.477 62.6649C165.477 61.4631 164.766 60.8622 163.344 60.8622H162.094ZM177.062 63.9027C177.062 64.7364 176.979 65.479 176.814 66.1307C176.649 66.7782 176.408 67.3283 176.09 67.7811C175.773 68.2297 175.386 68.5725 174.929 68.8094C174.472 69.0422 173.951 69.1586 173.367 69.1586C172.766 69.1586 172.237 69.0528 171.78 68.8412V67.8446C172.284 68.1281 172.821 68.2699 173.393 68.2699C173.803 68.2699 174.169 68.1853 174.491 68.016C174.817 67.8467 175.092 67.6013 175.316 67.2797C175.54 66.9538 175.712 66.5539 175.83 66.08C175.949 65.606 176.008 65.0622 176.008 64.4486H175.982C175.593 65.2315 174.916 65.6229 173.951 65.6229C173.562 65.6229 173.204 65.5552 172.878 65.4198C172.553 65.2802 172.271 65.0855 172.034 64.8358C171.797 64.5819 171.613 64.2815 171.482 63.9344C171.351 63.5874 171.285 63.2045 171.285 62.7855C171.285 62.337 171.357 61.9265 171.501 61.5541C171.649 61.1817 171.852 60.8622 172.11 60.5956C172.373 60.3247 172.682 60.1153 173.037 59.9672C173.397 59.8191 173.788 59.745 174.211 59.745C174.668 59.745 175.073 59.8381 175.424 60.0243C175.779 60.2063 176.078 60.475 176.319 60.8304C176.56 61.1817 176.744 61.6154 176.871 62.1317C176.998 62.648 177.062 63.2383 177.062 63.9027ZM175.938 62.9696C175.938 62.6184 175.891 62.2989 175.798 62.0111C175.709 61.7233 175.585 61.4779 175.424 61.2748C175.263 61.0674 175.07 60.9087 174.846 60.7987C174.626 60.6844 174.385 60.6273 174.123 60.6273C173.873 60.6273 173.64 60.6781 173.424 60.7797C173.208 60.877 173.02 61.0166 172.859 61.1986C172.703 61.3763 172.578 61.59 172.485 61.8397C172.396 62.0852 172.352 62.3539 172.352 62.6459C172.352 62.9675 172.394 63.2552 172.479 63.5092C172.567 63.7631 172.692 63.9789 172.853 64.1566C173.014 64.3301 173.206 64.4634 173.431 64.5565C173.659 64.6496 173.911 64.6962 174.186 64.6962C174.427 64.6962 174.654 64.6517 174.865 64.5629C175.081 64.4698 175.267 64.347 175.424 64.1947C175.585 64.0381 175.709 63.8562 175.798 63.6488C175.891 63.4372 175.938 63.2108 175.938 62.9696Z" fill="#F0FBFF"/>
<path d="M39.1 29.7V20.3L41.4 18H48.36L50.62 20.26V22.4H47.9V21.26L46.96 20.32H42.84L41.82 21.34V28.66L42.84 29.68H47L47.98 28.7V26.52H44.98V24.2H50.62V29.7L48.32 32H41.4L39.1 29.7ZM63.8156 27.36V32H61.0956V27.98L59.8956 26.64H55.5356V32H52.8156V18H61.5956L63.7356 20.16V24.4L62.3756 25.78L63.8156 27.36ZM55.5356 24.4H60.3556L61.0556 23.7V20.98L60.3556 20.28H55.5356V24.4ZM66.1117 29.7V20.3L68.4117 18H75.6117L77.9117 20.3V29.7L75.6117 32H68.4117L66.1117 29.7ZM74.1717 29.68L75.1917 28.66V21.34L74.1717 20.32H69.8517L68.8317 21.34V28.66L69.8517 29.68H74.1717ZM80.3156 29.6V18H83.0356V28.66L84.0556 29.68H87.9756L88.9956 28.66V18H91.7156V29.6L89.3156 32H82.7156L80.3156 29.6ZM94.3195 18H103.1L105.24 20.16V25.06L103.08 27.24H97.0395V32H94.3195V18ZM101.86 24.96L102.56 24.26V20.98L101.86 20.28H97.0395V24.96H101.86ZM112.598 29.84V28.06H115.318V28.98L116.018 29.68H119.418L120.118 28.98V25.76L118.978 26.9H114.558L112.398 24.74V20.16L114.558 18H120.678L122.838 20.16V29.84L120.678 32H114.758L112.598 29.84ZM118.818 24.58L120.118 23.28V21.02L119.418 20.32H115.818L115.118 21.02V23.88L115.818 24.58H118.818Z" fill="#BCBCBC"/>
</svg>
