<svg width="200" height="73" viewBox="0 0 200 73" fill="none" xmlns="http://www.w3.org/2000/svg">
<path d="M13.2301 18.0354H15.354L8.58407 24.0531H0L24.646 0.601807L13.2301 18.0354Z" fill="#BCBCBC"/>
<path d="M26.9469 17.9912L11.5487 31.885H3.09735L18.3628 17.9912H26.9469Z" fill="#BCBCBC"/>
<path d="M21.3717 25.7788L14.823 31.8407H16.6372L5.35398 49.0531L30 25.7788H21.3717Z" fill="#BCBCBC"/>
<path d="M5.78906 69.2092C4.47298 69.2092 3.34945 68.7458 2.41846 67.8191C1.4917 66.8881 1.02832 65.7646 1.02832 64.4485C1.02832 63.1324 1.4917 62.011 2.41846 61.0842C3.34945 60.1532 4.47298 59.6877 5.78906 59.6877C7.10091 59.6877 8.22021 60.1532 9.14697 61.0842C10.078 62.011 10.5435 63.1324 10.5435 64.4485C10.5435 65.7646 10.078 66.8881 9.14697 67.8191C8.22021 68.7458 7.10091 69.2092 5.78906 69.2092ZM5.78906 60.2463C4.62956 60.2463 3.63932 60.6568 2.81836 61.4778C1.9974 62.2987 1.58691 63.289 1.58691 64.4485C1.58691 65.608 1.9974 66.5982 2.81836 67.4192C3.63932 68.2359 4.62956 68.6443 5.78906 68.6443C6.94857 68.6443 7.93669 68.2359 8.75342 67.4192C9.57438 66.5982 9.98486 65.608 9.98486 64.4485C9.98486 63.289 9.57438 62.2987 8.75342 61.4778C7.93669 60.6568 6.94857 60.2463 5.78906 60.2463ZM7.50928 66.9114C7.06494 67.2034 6.5402 67.3494 5.93506 67.3494C5.12256 67.3494 4.44124 67.0849 3.89111 66.5559C3.34098 66.0269 3.06592 65.3647 3.06592 64.5691C3.06592 63.6466 3.34733 62.9102 3.91016 62.3601C4.47298 61.81 5.20508 61.5349 6.10645 61.5349C6.61849 61.5349 7.07764 61.6471 7.48389 61.8713V62.8235C7.11995 62.5188 6.63542 62.3665 6.03027 62.3665C5.43359 62.3665 4.94059 62.5569 4.55127 62.9377C4.16618 63.3186 3.97363 63.8306 3.97363 64.4739C3.97363 65.1002 4.17041 65.6016 4.56396 65.9783C4.96175 66.3549 5.46533 66.5432 6.07471 66.5432C6.6333 66.5432 7.11149 66.3782 7.50928 66.0481V66.9114ZM20.0459 62.2839C20.0459 62.0046 20.0015 61.7613 19.9126 61.554C19.828 61.3466 19.7095 61.1752 19.5571 61.0398C19.409 60.9001 19.2334 60.7965 19.0303 60.7288C18.8271 60.6611 18.6071 60.6272 18.3701 60.6272C18.167 60.6272 17.9681 60.6547 17.7734 60.7097C17.5788 60.7647 17.3883 60.8409 17.2021 60.9382C17.0202 61.0356 16.8424 61.1519 16.6689 61.2874C16.4997 61.4228 16.341 61.573 16.1929 61.738V60.6208C16.4849 60.3373 16.8107 60.1215 17.1704 59.9734C17.5343 59.821 17.9766 59.7449 18.4971 59.7449C18.8695 59.7449 19.2144 59.7999 19.5317 59.9099C19.8491 60.0157 20.1242 60.1723 20.3569 60.3796C20.5897 60.587 20.7716 60.843 20.9028 61.1477C21.0382 61.4524 21.106 61.8015 21.106 62.1951C21.106 62.5548 21.0636 62.8806 20.979 63.1726C20.8986 63.4646 20.7738 63.7397 20.6045 63.9978C20.4395 64.2559 20.23 64.5035 19.9761 64.7405C19.7222 64.9775 19.4238 65.2187 19.0811 65.4641C18.6536 65.7688 18.3003 66.0291 18.021 66.2449C17.7459 66.4607 17.5259 66.6638 17.3608 66.8542C17.2 67.0404 17.0858 67.2288 17.0181 67.4192C16.9546 67.6054 16.9229 67.8212 16.9229 68.0667H21.4551V68.9998H15.8374V68.5491C15.8374 68.1597 15.8797 67.817 15.9644 67.5208C16.049 67.2245 16.1886 66.9431 16.3833 66.6765C16.578 66.4099 16.8319 66.1433 17.145 65.8767C17.4624 65.6101 17.8496 65.3097 18.3066 64.9753C18.6367 64.7384 18.9118 64.512 19.1318 64.2961C19.3561 64.0803 19.536 63.8645 19.6714 63.6487C19.8068 63.4329 19.902 63.2149 19.957 62.9949C20.0163 62.7706 20.0459 62.5336 20.0459 62.2839ZM28.6279 64.4104C28.6279 65.1721 28.5581 65.8471 28.4185 66.4353C28.283 67.0235 28.0841 67.5208 27.8218 67.927C27.5636 68.329 27.2441 68.6358 26.8633 68.8474C26.4867 69.0548 26.0571 69.1584 25.5747 69.1584C25.1177 69.1584 24.7093 69.059 24.3496 68.8601C23.9941 68.657 23.6937 68.3629 23.4482 67.9778C23.2028 67.5927 23.0166 67.1208 22.8896 66.5623C22.7627 65.9994 22.6992 65.3562 22.6992 64.6326C22.6992 63.837 22.7648 63.1345 22.896 62.5251C23.0314 61.9158 23.2282 61.4058 23.4863 60.9954C23.7445 60.5806 24.064 60.2696 24.4448 60.0623C24.8299 59.8507 25.27 59.7449 25.7651 59.7449C27.6737 59.7449 28.6279 61.3 28.6279 64.4104ZM27.5615 64.512C27.5615 61.9221 26.9458 60.6272 25.7144 60.6272C24.4152 60.6272 23.7656 61.9454 23.7656 64.5818C23.7656 67.0404 24.4025 68.2698 25.6763 68.2698C26.9331 68.2698 27.5615 67.0172 27.5615 64.512ZM34.0615 62.2839C34.0615 62.0046 34.0171 61.7613 33.9282 61.554C33.8436 61.3466 33.7251 61.1752 33.5728 61.0398C33.4246 60.9001 33.249 60.7965 33.0459 60.7288C32.8428 60.6611 32.6227 60.6272 32.3857 60.6272C32.1826 60.6272 31.9837 60.6547 31.7891 60.7097C31.5944 60.7647 31.404 60.8409 31.2178 60.9382C31.0358 61.0356 30.8581 61.1519 30.6846 61.2874C30.5153 61.4228 30.3566 61.573 30.2085 61.738V60.6208C30.5005 60.3373 30.8263 60.1215 31.186 59.9734C31.55 59.821 31.9922 59.7449 32.5127 59.7449C32.8851 59.7449 33.23 59.7999 33.5474 59.9099C33.8647 60.0157 34.1398 60.1723 34.3726 60.3796C34.6053 60.587 34.7873 60.843 34.9185 61.1477C35.0539 61.4524 35.1216 61.8015 35.1216 62.1951C35.1216 62.5548 35.0793 62.8806 34.9946 63.1726C34.9142 63.4646 34.7894 63.7397 34.6201 63.9978C34.4551 64.2559 34.2456 64.5035 33.9917 64.7405C33.7378 64.9775 33.4395 65.2187 33.0967 65.4641C32.6693 65.7688 32.3159 66.0291 32.0366 66.2449C31.7616 66.4607 31.5415 66.6638 31.3765 66.8542C31.2157 67.0404 31.1014 67.2288 31.0337 67.4192C30.9702 67.6054 30.9385 67.8212 30.9385 68.0667H35.4707V68.9998H29.853V68.5491C29.853 68.1597 29.8953 67.817 29.98 67.5208C30.0646 67.2245 30.2043 66.9431 30.3989 66.6765C30.5936 66.4099 30.8475 66.1433 31.1606 65.8767C31.478 65.6101 31.8652 65.3097 32.3223 64.9753C32.6523 64.7384 32.9274 64.512 33.1475 64.2961C33.3717 64.0803 33.5516 63.8645 33.687 63.6487C33.8224 63.4329 33.9176 63.2149 33.9727 62.9949C34.0319 62.7706 34.0615 62.5336 34.0615 62.2839ZM41.5645 59.8972V65.9084H42.7324V66.8606H41.5645V68.9998H40.5361V66.8606H36.2578V65.9592C36.6556 65.5107 37.0576 65.0325 37.4639 64.5247C37.8701 64.0126 38.2573 63.4942 38.6255 62.9695C38.9979 62.4447 39.3407 61.9221 39.6538 61.4016C39.9712 60.8769 40.2378 60.3754 40.4536 59.8972H41.5645ZM37.4321 65.9084H40.5361V61.4524C40.2188 62.0068 39.9183 62.5019 39.6348 62.9377C39.3512 63.3736 39.0804 63.7693 38.8223 64.1248C38.5684 64.4802 38.325 64.8018 38.0923 65.0896C37.8595 65.3774 37.6395 65.6503 37.4321 65.9084ZM54.1328 68.6189C53.46 68.9744 52.6221 69.1521 51.6191 69.1521C50.3242 69.1521 49.2874 68.7353 48.5088 67.9016C47.7301 67.068 47.3408 65.974 47.3408 64.6199C47.3408 63.1641 47.7788 61.9877 48.6548 61.0906C49.5308 60.1934 50.6416 59.7449 51.9873 59.7449C52.8506 59.7449 53.5658 59.8697 54.1328 60.1194V61.2556C53.4811 60.8917 52.7617 60.7097 51.9746 60.7097C50.9294 60.7097 50.0809 61.0588 49.4292 61.7571C48.7817 62.4553 48.458 63.3884 48.458 64.5564C48.458 65.6651 48.7606 66.5496 49.3657 67.2097C49.9751 67.8656 50.7728 68.1936 51.7588 68.1936C52.6729 68.1936 53.4642 67.9905 54.1328 67.5842V68.6189ZM58.5635 69.1521C57.6029 69.1521 56.8348 68.8495 56.2593 68.2444C55.688 67.635 55.4023 66.8289 55.4023 65.8259C55.4023 64.7341 55.7007 63.8814 56.2974 63.2678C56.894 62.6542 57.7002 62.3474 58.7158 62.3474C59.6849 62.3474 60.4403 62.6458 60.9819 63.2424C61.5278 63.8391 61.8008 64.6664 61.8008 65.7244C61.8008 66.7611 61.5067 67.5927 60.9185 68.219C60.3345 68.8411 59.5495 69.1521 58.5635 69.1521ZM58.6396 63.2234C57.971 63.2234 57.4421 63.4519 57.0527 63.9089C56.6634 64.3617 56.4688 64.988 56.4688 65.7878C56.4688 66.558 56.6655 67.1653 57.0591 67.6096C57.4526 68.054 57.9795 68.2761 58.6396 68.2761C59.3125 68.2761 59.8288 68.0582 60.1885 67.6223C60.5524 67.1864 60.7344 66.5665 60.7344 65.7625C60.7344 64.95 60.5524 64.3236 60.1885 63.8835C59.8288 63.4434 59.3125 63.2234 58.6396 63.2234ZM64.5303 68.0603H64.5049V71.9895H63.4639V62.4998H64.5049V63.6423H64.5303C65.0423 62.7791 65.7913 62.3474 66.7773 62.3474C67.6152 62.3474 68.269 62.6394 68.7388 63.2234C69.2085 63.8031 69.4434 64.5818 69.4434 65.5593C69.4434 66.6469 69.1789 67.5186 68.6499 68.1746C68.1209 68.8263 67.3973 69.1521 66.479 69.1521C65.6369 69.1521 64.9873 68.7882 64.5303 68.0603ZM64.5049 65.4387V66.3464C64.5049 66.8839 64.6784 67.3409 65.0254 67.7175C65.3766 68.0899 65.821 68.2761 66.3584 68.2761C66.9889 68.2761 67.4819 68.0349 67.8374 67.5525C68.1971 67.0701 68.377 66.3993 68.377 65.5403C68.377 64.8167 68.2098 64.2496 67.8755 63.8391C67.5412 63.4286 67.0884 63.2234 66.5171 63.2234C65.9119 63.2234 65.4253 63.435 65.0571 63.8582C64.689 64.2771 64.5049 64.804 64.5049 65.4387ZM76.2798 62.4998L73.29 70.0408C72.7568 71.3865 72.0078 72.0593 71.043 72.0593C70.7721 72.0593 70.5457 72.0318 70.3638 71.9768V71.0437C70.5881 71.1199 70.7933 71.158 70.9795 71.158C71.5042 71.158 71.8978 70.8448 72.1602 70.2185L72.6807 68.9871L70.1416 62.4998H71.2969L73.0552 67.5017C73.0763 67.5652 73.1208 67.7302 73.1885 67.9968H73.2266C73.2477 67.8953 73.29 67.7345 73.3535 67.5144L75.2007 62.4998H76.2798ZM80.793 63.5535C80.611 63.4138 80.3486 63.344 80.0059 63.344C79.5615 63.344 79.1891 63.5535 78.8887 63.9724C78.5924 64.3914 78.4443 64.9626 78.4443 65.6863V68.9998H77.4033V62.4998H78.4443V63.8391H78.4697C78.6178 63.3821 78.8442 63.0266 79.1489 62.7727C79.4536 62.5146 79.7943 62.3855 80.1709 62.3855C80.4417 62.3855 80.6491 62.4151 80.793 62.4744V63.5535ZM82.4561 60.8494C82.2699 60.8494 82.1112 60.7859 81.98 60.6589C81.8488 60.532 81.7832 60.3712 81.7832 60.1765C81.7832 59.9819 81.8488 59.821 81.98 59.6941C82.1112 59.5629 82.2699 59.4973 82.4561 59.4973C82.6465 59.4973 82.8073 59.5629 82.9385 59.6941C83.0739 59.821 83.1416 59.9819 83.1416 60.1765C83.1416 60.3627 83.0739 60.5214 82.9385 60.6526C82.8073 60.7838 82.6465 60.8494 82.4561 60.8494ZM82.9639 68.9998H81.9229V62.4998H82.9639V68.9998ZM90.6191 68.4792C90.6191 70.866 89.4766 72.0593 87.1914 72.0593C86.3874 72.0593 85.6849 71.907 85.084 71.6023V70.5613C85.8161 70.9675 86.5143 71.1707 87.1787 71.1707C88.7783 71.1707 89.5781 70.3201 89.5781 68.6189V67.908H89.5527C89.0576 68.7374 88.3128 69.1521 87.3184 69.1521C86.5101 69.1521 85.8584 68.8643 85.3633 68.2888C84.8724 67.7091 84.627 66.9325 84.627 65.9592C84.627 64.8547 84.8914 63.9766 85.4204 63.325C85.9536 62.6733 86.6815 62.3474 87.604 62.3474C88.48 62.3474 89.1296 62.6986 89.5527 63.4011H89.5781V62.4998H90.6191V68.4792ZM89.5781 66.0608V65.1023C89.5781 64.586 89.4025 64.1438 89.0513 63.7756C88.7043 63.4075 88.2705 63.2234 87.75 63.2234C87.1068 63.2234 86.6032 63.4583 86.2393 63.928C85.8753 64.3935 85.6934 65.0473 85.6934 65.8894C85.6934 66.613 85.8669 67.1928 86.2139 67.6287C86.5651 68.0603 87.0285 68.2761 87.604 68.2761C88.188 68.2761 88.6619 68.0688 89.0259 67.6541C89.394 67.2393 89.5781 66.7083 89.5781 66.0608ZM98.1221 68.9998H97.0811V65.2546C97.0811 63.9005 96.5775 63.2234 95.5703 63.2234C95.0625 63.2234 94.6351 63.4202 94.2881 63.8137C93.9411 64.203 93.7676 64.7045 93.7676 65.3181V68.9998H92.7266V59.3767H93.7676V63.5789H93.793C94.2923 62.7579 95.0033 62.3474 95.9258 62.3474C97.39 62.3474 98.1221 63.2297 98.1221 64.9944V68.9998ZM103.105 68.9363C102.86 69.0717 102.536 69.1394 102.134 69.1394C100.995 69.1394 100.426 68.5046 100.426 67.2351V63.3884H99.3091V62.4998H100.426V60.9128L101.467 60.5764V62.4998H103.105V63.3884H101.467V67.051C101.467 67.4869 101.541 67.7979 101.689 67.9841C101.838 68.1703 102.083 68.2634 102.426 68.2634C102.688 68.2634 102.915 68.1915 103.105 68.0476V68.9363ZM109.129 68.0603H109.104V68.9998H108.062V59.3767H109.104V63.6423H109.129C109.641 62.7791 110.39 62.3474 111.376 62.3474C112.21 62.3474 112.861 62.6394 113.331 63.2234C113.805 63.8031 114.042 64.5818 114.042 65.5593C114.042 66.6469 113.778 67.5186 113.249 68.1746C112.72 68.8263 111.996 69.1521 111.078 69.1521C110.219 69.1521 109.569 68.7882 109.129 68.0603ZM109.104 65.4387V66.3464C109.104 66.8839 109.277 67.3409 109.624 67.7175C109.975 68.0899 110.42 68.2761 110.957 68.2761C111.588 68.2761 112.081 68.0349 112.436 67.5525C112.796 67.0701 112.976 66.3993 112.976 65.5403C112.976 64.8167 112.808 64.2496 112.474 63.8391C112.14 63.4286 111.687 63.2234 111.116 63.2234C110.511 63.2234 110.024 63.435 109.656 63.8582C109.288 64.2771 109.104 64.804 109.104 65.4387ZM120.878 62.4998L117.889 70.0408C117.355 71.3865 116.606 72.0593 115.642 72.0593C115.371 72.0593 115.144 72.0318 114.962 71.9768V71.0437C115.187 71.1199 115.392 71.158 115.578 71.158C116.103 71.158 116.496 70.8448 116.759 70.2185L117.279 68.9871L114.74 62.4998H115.896L117.654 67.5017C117.675 67.5652 117.719 67.7302 117.787 67.9968H117.825C117.846 67.8953 117.889 67.7345 117.952 67.5144L119.799 62.4998H120.878ZM132.514 68.3777C131.6 68.894 130.584 69.1521 129.467 69.1521C128.168 69.1521 127.116 68.7332 126.312 67.8953C125.512 67.0574 125.112 65.9486 125.112 64.5691C125.112 63.1599 125.557 62.0046 126.445 61.1033C127.338 60.1977 128.468 59.7449 129.835 59.7449C130.825 59.7449 131.657 59.9057 132.33 60.2273V61.408C131.593 60.9425 130.722 60.7097 129.714 60.7097C128.694 60.7097 127.859 61.061 127.207 61.7634C126.555 62.4659 126.229 63.3757 126.229 64.4929C126.229 65.644 126.532 66.5496 127.137 67.2097C127.742 67.8656 128.563 68.1936 129.6 68.1936C130.311 68.1936 130.927 68.0518 131.447 67.7683V65.2166H129.454V64.2517H132.514V68.3777ZM141.159 68.9998H139.89L138.366 66.448C138.227 66.211 138.091 66.01 137.96 65.845C137.829 65.6757 137.693 65.5382 137.554 65.4324C137.418 65.3266 137.27 65.2504 137.109 65.2039C136.953 65.1531 136.775 65.1277 136.576 65.1277H135.7V68.9998H134.634V59.8972H137.351C137.748 59.8972 138.114 59.948 138.449 60.0496C138.787 60.1469 139.079 60.2971 139.325 60.5002C139.574 60.7034 139.769 60.9573 139.909 61.262C140.048 61.5624 140.118 61.9158 140.118 62.322C140.118 62.6394 140.069 62.9314 139.972 63.198C139.879 63.4604 139.744 63.6952 139.566 63.9026C139.392 64.1099 139.181 64.2877 138.931 64.4358C138.686 64.5797 138.409 64.6918 138.1 64.7722V64.7976C138.252 64.8653 138.383 64.9436 138.493 65.0325C138.607 65.1171 138.715 65.2187 138.817 65.3372C138.918 65.4556 139.018 65.5911 139.115 65.7434C139.217 65.8915 139.329 66.065 139.452 66.2639L141.159 68.9998ZM135.7 60.8621V64.1628H137.147C137.414 64.1628 137.66 64.1226 137.884 64.0422C138.112 63.9618 138.309 63.8476 138.474 63.6995C138.639 63.5471 138.768 63.363 138.861 63.1472C138.954 62.9272 139.001 62.6817 139.001 62.4109C139.001 61.9242 138.842 61.5455 138.525 61.2747C138.212 60.9996 137.757 60.8621 137.16 60.8621H135.7ZM145.958 69.1521C144.667 69.1521 143.633 68.7268 142.854 67.8762C142.08 67.0256 141.692 65.919 141.692 64.5564C141.692 63.0922 142.088 61.9242 142.879 61.0525C143.671 60.1807 144.748 59.7449 146.11 59.7449C147.367 59.7449 148.379 60.1681 149.145 61.0144C149.915 61.8608 150.3 62.9674 150.3 64.3342C150.3 65.8196 149.906 66.9939 149.119 67.8572C148.332 68.7205 147.278 69.1521 145.958 69.1521ZM146.034 60.7097C145.078 60.7097 144.301 61.0546 143.705 61.7444C143.108 62.4342 142.81 63.3398 142.81 64.4612C142.81 65.5826 143.099 66.4861 143.679 67.1716C144.263 67.8529 145.023 68.1936 145.958 68.1936C146.957 68.1936 147.744 67.8678 148.319 67.2161C148.895 66.5644 149.183 65.6524 149.183 64.4802C149.183 63.2784 148.903 62.3495 148.345 61.6936C147.786 61.0377 147.016 60.7097 146.034 60.7097ZM158.749 65.3181C158.749 67.8741 157.595 69.1521 155.289 69.1521C153.08 69.1521 151.976 67.9228 151.976 65.4641V59.8972H153.042V65.3943C153.042 67.2605 153.829 68.1936 155.403 68.1936C156.923 68.1936 157.682 67.2922 157.682 65.4895V59.8972H158.749V65.3181ZM162.094 65.5593V68.9998H161.027V59.8972H163.528C164.502 59.8972 165.255 60.1342 165.788 60.6082C166.326 61.0821 166.594 61.7507 166.594 62.614C166.594 63.4773 166.296 64.184 165.699 64.7341C165.107 65.2843 164.305 65.5593 163.293 65.5593H162.094ZM162.094 60.8621V64.5945H163.211C163.947 64.5945 164.508 64.4273 164.893 64.093C165.282 63.7545 165.477 63.2784 165.477 62.6648C165.477 61.463 164.766 60.8621 163.344 60.8621H162.094ZM177.062 63.9026C177.062 64.7362 176.979 65.4789 176.814 66.1306C176.649 66.7781 176.408 67.3282 176.09 67.781C175.773 68.2296 175.386 68.5723 174.929 68.8093C174.472 69.0421 173.951 69.1584 173.367 69.1584C172.766 69.1584 172.237 69.0527 171.78 68.8411V67.8445C172.284 68.128 172.821 68.2698 173.393 68.2698C173.803 68.2698 174.169 68.1851 174.491 68.0159C174.817 67.8466 175.092 67.6012 175.316 67.2795C175.54 66.9537 175.712 66.5538 175.83 66.0798C175.949 65.6059 176.008 65.0621 176.008 64.4485H175.982C175.593 65.2314 174.916 65.6228 173.951 65.6228C173.562 65.6228 173.204 65.5551 172.878 65.4197C172.553 65.28 172.271 65.0854 172.034 64.8357C171.797 64.5818 171.613 64.2813 171.482 63.9343C171.351 63.5873 171.285 63.2043 171.285 62.7854C171.285 62.3368 171.357 61.9264 171.501 61.554C171.649 61.1816 171.852 60.8621 172.11 60.5955C172.373 60.3246 172.682 60.1152 173.037 59.967C173.397 59.8189 173.788 59.7449 174.211 59.7449C174.668 59.7449 175.073 59.838 175.424 60.0242C175.779 60.2061 176.078 60.4749 176.319 60.8303C176.56 61.1816 176.744 61.6153 176.871 62.1316C176.998 62.6479 177.062 63.2382 177.062 63.9026ZM175.938 62.9695C175.938 62.6182 175.891 62.2987 175.798 62.011C175.709 61.7232 175.585 61.4778 175.424 61.2747C175.263 61.0673 175.07 60.9086 174.846 60.7986C174.626 60.6843 174.385 60.6272 174.123 60.6272C173.873 60.6272 173.64 60.678 173.424 60.7795C173.208 60.8769 173.02 61.0165 172.859 61.1985C172.703 61.3762 172.578 61.5899 172.485 61.8396C172.396 62.085 172.352 62.3538 172.352 62.6458C172.352 62.9674 172.394 63.2551 172.479 63.509C172.567 63.7629 172.692 63.9788 172.853 64.1565C173.014 64.33 173.206 64.4633 173.431 64.5564C173.659 64.6495 173.911 64.696 174.186 64.696C174.427 64.696 174.654 64.6516 174.865 64.5627C175.081 64.4696 175.267 64.3469 175.424 64.1946C175.585 64.038 175.709 63.856 175.798 63.6487C175.891 63.4371 175.938 63.2107 175.938 62.9695Z" fill="#F0FBFF"/>
<path d="M39.1 29.7V20.3L41.4 18H48.36L50.62 20.26V22.4H47.9V21.26L46.96 20.32H42.84L41.82 21.34V28.66L42.84 29.68H47L47.98 28.7V26.52H44.98V24.2H50.62V29.7L48.32 32H41.4L39.1 29.7ZM63.8156 27.36V32H61.0956V27.98L59.8956 26.64H55.5356V32H52.8156V18H61.5956L63.7356 20.16V24.4L62.3756 25.78L63.8156 27.36ZM55.5356 24.4H60.3556L61.0556 23.7V20.98L60.3556 20.28H55.5356V24.4ZM66.1117 29.7V20.3L68.4117 18H75.6117L77.9117 20.3V29.7L75.6117 32H68.4117L66.1117 29.7ZM74.1717 29.68L75.1917 28.66V21.34L74.1717 20.32H69.8517L68.8317 21.34V28.66L69.8517 29.68H74.1717ZM80.3156 29.6V18H83.0356V28.66L84.0556 29.68H87.9756L88.9956 28.66V18H91.7156V29.6L89.3156 32H82.7156L80.3156 29.6ZM94.3195 18H103.1L105.24 20.16V25.06L103.08 27.24H97.0395V32H94.3195V18ZM101.86 24.96L102.56 24.26V20.98L101.86 20.28H97.0395V24.96H101.86ZM112.598 29.84V28.06H115.318V28.98L116.018 29.68H119.418L120.118 28.98V25.76L118.978 26.9H114.558L112.398 24.74V20.16L114.558 18H120.678L122.838 20.16V29.84L120.678 32H114.758L112.598 29.84ZM118.818 24.58L120.118 23.28V21.02L119.418 20.32H115.818L115.118 21.02V23.88L115.818 24.58H118.818Z" fill="#BCBCBC"/>
</svg>
