<svg width="53" height="53" viewBox="0 0 53 53" fill="none" xmlns="http://www.w3.org/2000/svg">
<g clip-path="url(#clip0_35_441)">
<g clip-path="url(#clip1_35_441)">
<path fill-rule="evenodd" clip-rule="evenodd" d="M32.9671 13.8769H21.0028C17.3986 13.8769 14.4768 16.7987 14.4768 20.4029V32.3672C14.4768 35.9713 17.3986 38.8931 21.0028 38.8931H32.9671C36.5712 38.8931 39.4931 35.9713 39.4931 32.3672V20.4029C39.4931 16.7987 36.5712 13.8769 32.9671 13.8769ZM26.9849 21.9369C24.5284 21.9369 22.5371 23.9283 22.5371 26.3847C22.5371 28.8412 24.5284 30.8325 26.9849 30.8325C29.4413 30.8325 31.4326 28.8412 31.4326 26.3847C31.4326 23.9283 29.4413 21.9369 26.9849 21.9369ZM20.556 26.3847C20.556 22.8341 23.4343 19.9559 26.9849 19.9559C30.5355 19.9559 33.4138 22.8341 33.4138 26.3847C33.4138 29.9353 30.5355 32.8136 26.9849 32.8136C23.4343 32.8136 20.556 29.9353 20.556 26.3847ZM35.6863 19.3152C35.6863 20.2163 34.9558 20.9467 34.0548 20.9467C33.1538 20.9467 32.4233 20.2163 32.4233 19.3152C32.4233 18.4142 33.1538 17.6837 34.0548 17.6837C34.9558 17.6837 35.6863 18.4142 35.6863 19.3152Z" fill="#BCBCBC"/>
</g>
</g>
<defs>
<clipPath id="clip0_35_441">
<rect width="28.59" height="28.59" fill="white" transform="translate(12.6899 12.09)"/>
</clipPath>
<clipPath id="clip1_35_441">
<rect width="28.59" height="28.59" fill="white" transform="translate(12.6899 12.09)"/>
</clipPath>
</defs>
</svg>
