<svg width="124" height="49" viewBox="0 0 124 49" fill="none" xmlns="http://www.w3.org/2000/svg">
<g clip-path="url(#clip0_152_222)">
<path d="M22.4851 17.9007H24.6055L17.8467 23.9086H9.27676L33.8823 0.495758L22.4851 17.9007Z" fill="white"/>
<path d="M36.1794 17.8566L20.8065 31.7275H12.369L27.6094 17.8566H36.1794Z" fill="white"/>
<path d="M30.6133 25.6314L24.0754 31.6834H25.8866L14.6219 48.8675L39.2275 25.6314H30.6133Z" fill="white"/>
</g>
<path d="M49.5447 28.6388V20.5026L51.5355 18.5118H57.5597L59.5159 20.468V22.3203H57.1616V21.3336L56.348 20.5199H52.7819L51.899 21.4028V27.7387L52.7819 28.6215H56.3826L57.2308 27.7733V25.8864H54.6342V23.8783H59.5159V28.6388L57.5251 30.6296H51.5355L49.5447 28.6388ZM70.9374 26.6134V30.6296H68.5831V27.1501L67.5445 25.9902H63.7706V30.6296H61.4163V18.5118H69.0159L70.8682 20.3814V24.0514L69.691 25.2459L70.9374 26.6134ZM63.7706 24.0514H67.9426L68.5485 23.4455V21.0912L67.9426 20.4853H63.7706V24.0514ZM72.9248 28.6388V20.5026L74.9156 18.5118H81.1476L83.1384 20.5026V28.6388L81.1476 30.6296H74.9156L72.9248 28.6388ZM79.9012 28.6215L80.7841 27.7387V21.4028L79.9012 20.5199H76.162L75.2792 21.4028V27.7387L76.162 28.6215H79.9012ZM85.2191 28.5523V18.5118H87.5734V27.7387L88.4563 28.6215H91.8493L92.7321 27.7387V18.5118H95.0864V28.5523L93.0091 30.6296H87.2964L85.2191 28.5523ZM97.3403 18.5118H104.94L106.792 20.3814V24.6227L104.923 26.5096H99.6946V30.6296H97.3403V18.5118ZM103.867 24.5361L104.472 23.9302V21.0912L103.867 20.4853H99.6946V24.5361H103.867ZM113.162 28.76V27.2193H115.516V28.0156L116.122 28.6215H119.065L119.671 28.0156V25.2286L118.684 26.2153H114.858L112.989 24.3457V20.3814L114.858 18.5118H120.155L122.025 20.3814V28.76L120.155 30.6296H115.031L113.162 28.76ZM118.545 24.2072L119.671 23.082V21.1258L119.065 20.5199H115.949L115.343 21.1258V23.6013L115.949 24.2072H118.545Z" fill="white"/>
<defs>
<clipPath id="clip0_152_222">
<rect width="48.5926" height="48.5926" fill="white" transform="translate(0 0.40741)"/>
</clipPath>
</defs>
</svg>
