<svg width="63" height="63" viewBox="0 0 63 63" fill="none" xmlns="http://www.w3.org/2000/svg">
<circle cx="31.5" cy="31.5" r="31.5" fill="white" fill-opacity="0.1"/>
<path fill-rule="evenodd" clip-rule="evenodd" d="M37.8895 28.6393C37.8895 29.9044 38.2239 30.65 38.9597 31.5093C39.5173 32.1423 39.6954 32.9549 39.6954 33.8365C39.6954 34.7171 39.4061 35.553 38.8265 36.2317C38.0677 37.0453 36.9975 37.5647 35.9053 37.655C34.3226 37.79 32.7389 37.9036 31.1342 37.9036C29.5284 37.9036 27.9457 37.8356 26.363 37.655C25.2698 37.5647 24.1997 37.0453 23.4418 36.2317C22.8622 35.553 22.5719 34.7171 22.5719 33.8365C22.5719 32.9549 22.7511 32.1423 23.3077 31.5093C24.0665 30.65 24.3789 29.9044 24.3789 28.6393V28.2102C24.3789 26.516 24.8013 25.4082 25.6713 24.3237C26.9647 22.7421 29.0379 21.7936 31.0891 21.7936H31.1792C33.2745 21.7936 35.4148 22.7878 36.6862 24.4373C37.5111 25.4995 37.8895 26.5607 37.8895 28.2102V28.6393ZM28.1861 39.9857C28.1861 39.4785 28.6516 39.2461 29.0821 39.1467C29.5857 39.0402 32.654 39.0402 33.1575 39.1467C33.588 39.2461 34.0535 39.4785 34.0535 39.9857C34.0285 40.4686 33.7452 40.8967 33.3537 41.1686C32.8462 41.5642 32.2505 41.8148 31.6279 41.9051C31.2835 41.9497 30.9451 41.9507 30.6128 41.9051C29.9891 41.8148 29.3934 41.5642 28.8869 41.1676C28.4945 40.8967 28.2112 40.4686 28.1861 39.9857Z" fill="white"/>
<circle cx="52.6686" cy="8.6686" r="6.6686" fill="#C9F5B8"/>
</svg>
