<svg width="37" height="37" viewBox="0 0 37 37" fill="none" xmlns="http://www.w3.org/2000/svg">
<path d="M16.4389 26.3367C21.9065 26.3367 26.3389 21.9043 26.3389 16.4367C26.3389 10.9691 21.9065 6.53667 16.4389 6.53667C10.9712 6.53667 6.53882 10.9691 6.53882 16.4367C6.53882 21.9043 10.9712 26.3367 16.4389 26.3367Z" fill="url(#paint0_linear_76_543)" fill-opacity="0.24" stroke="white" stroke-width="1.125" stroke-linecap="round" stroke-linejoin="round"/>
<path d="M25.5029 23.6591L24.5809 22.7371L22.7371 24.581L23.659 25.5029L25.5029 23.6591ZM27.245 29.089C27.3653 29.2135 27.5092 29.3129 27.6684 29.3813C27.8275 29.4495 27.9986 29.4855 28.1717 29.4871C28.3448 29.4886 28.5165 29.4556 28.6768 29.39C28.837 29.3244 28.9827 29.2276 29.1051 29.1052C29.2275 28.9828 29.3244 28.8371 29.39 28.6769C29.4556 28.5166 29.4885 28.3449 29.4871 28.1718C29.4855 27.9986 29.4495 27.8275 29.3812 27.6684C29.3128 27.5093 29.2135 27.3654 29.0889 27.2451L27.245 29.089ZM23.659 25.5029L27.245 29.089L29.0889 27.2451L25.5029 23.6591L23.659 25.5029Z" fill="white"/>
<defs>
<linearGradient id="paint0_linear_76_543" x1="16.4389" y1="6.53667" x2="16.4389" y2="26.3367" gradientUnits="userSpaceOnUse">
<stop stop-color="white" stop-opacity="0"/>
<stop offset="1" stop-color="white"/>
</linearGradient>
</defs>
</svg>
