<svg width="63" height="63" viewBox="0 0 63 63" fill="none" xmlns="http://www.w3.org/2000/svg">
<circle cx="31.5" cy="31.5" r="31.5" fill="white" fill-opacity="0.1"/>
<mask id="mask0_83_607" style="mask-type:luminance" maskUnits="userSpaceOnUse" x="20" y="21" width="24" height="23">
<path d="M29.1901 41.7948C27.5147 41.2946 25.9973 40.3691 24.7858 39.1084C25.1756 38.6461 25.4186 38.078 25.4837 37.4767C25.5488 36.8755 25.433 36.2685 25.1511 35.7334C24.8693 35.1983 24.4342 34.7595 23.9016 34.4731C23.369 34.1867 22.763 34.0658 22.1612 34.1257C22.0241 33.4542 21.9552 32.7705 21.9556 32.0852C21.9556 31.0266 22.1176 30.0056 22.4195 29.0463H22.462C22.9785 29.0465 23.4865 28.915 23.9381 28.6643C24.3896 28.4136 24.7698 28.0519 25.0428 27.6135C25.3158 27.175 25.4725 26.6742 25.4981 26.1584C25.5238 25.6425 25.4175 25.1287 25.1894 24.6653C26.3769 23.5596 27.813 22.7558 29.3764 22.3218C29.6309 22.8214 30.0186 23.2409 30.4966 23.5338C30.9747 23.8267 31.5244 23.9817 32.0851 23.9816C32.6457 23.9817 33.1955 23.8267 33.6735 23.5338C34.1516 23.2409 34.5393 22.8214 34.7937 22.3218C36.3572 22.7558 37.7933 23.5596 38.9807 24.6653C38.751 25.1319 38.6448 25.6497 38.6724 26.1691C38.7 26.6885 38.8605 27.1921 39.1384 27.6317C39.4164 28.0714 39.8025 28.4323 40.2599 28.68C40.7173 28.9276 41.2306 29.0538 41.7507 29.0463C42.0591 30.0297 42.2155 31.0545 42.2146 32.0852C42.2146 32.7841 42.1437 33.4668 42.009 34.1263C41.4072 34.0663 40.8012 34.1873 40.2686 34.4737C39.7359 34.76 39.3008 35.1989 39.019 35.7339C38.7372 36.269 38.6214 36.876 38.6865 37.4772C38.7516 38.0785 38.9946 38.6466 39.3844 39.109C38.1728 40.3694 36.6554 41.2947 34.9801 41.7948C34.7833 41.1816 34.397 40.6467 33.8767 40.2672C33.3564 39.8877 32.7291 39.6833 32.0851 39.6833C31.4411 39.6833 30.8137 39.8877 30.2935 40.2672C29.7732 40.6467 29.3868 41.1816 29.1901 41.7948Z" fill="white" stroke="white" stroke-width="2.51457" stroke-linejoin="round"/>
<path d="M32.085 35.6305C32.5506 35.6305 33.0116 35.5388 33.4417 35.3606C33.8719 35.1824 34.2627 34.9213 34.5919 34.5921C34.9211 34.2629 35.1823 33.872 35.3605 33.4419C35.5386 33.0118 35.6303 32.5507 35.6303 32.0852C35.6303 31.6196 35.5386 31.1586 35.3605 30.7284C35.1823 30.2983 34.9211 29.9074 34.5919 29.5782C34.2627 29.249 33.8719 28.9879 33.4417 28.8097C33.0116 28.6315 32.5506 28.5398 32.085 28.5398C31.1447 28.5398 30.243 28.9134 29.5781 29.5782C28.9132 30.2431 28.5397 31.1449 28.5397 32.0852C28.5397 33.0254 28.9132 33.9272 29.5781 34.5921C30.243 35.257 31.1447 35.6305 32.085 35.6305Z" fill="black" stroke="black" stroke-width="2.51457" stroke-linejoin="round"/>
</mask>
<g mask="url(#mask0_83_607)">
<path d="M19.9296 19.9297H44.2404V44.2406H19.9296V19.9297Z" fill="white"/>
</g>
</svg>
