<svg width="53" height="53" viewBox="0 0 53 53" fill="none" xmlns="http://www.w3.org/2000/svg">
<g clip-path="url(#clip0_35_427)">
<g clip-path="url(#clip1_35_427)">
<g clip-path="url(#clip2_35_427)">
<path d="M38.353 20.5532C38.3704 20.8052 38.3704 21.0573 38.3704 21.3116C38.3704 29.0616 32.47 37.9997 21.6811 37.9997V37.9951C18.4939 37.9997 15.373 37.0869 12.6899 35.3657C13.1534 35.4214 13.6191 35.4493 14.086 35.4505C16.7273 35.4528 19.293 34.5666 21.3709 32.9349C18.8609 32.8873 16.6599 31.2508 15.891 28.8618C16.7702 29.0314 17.6762 28.9965 18.5392 28.7608C15.8027 28.208 13.834 25.8039 13.834 23.0119C13.834 22.9864 13.834 22.962 13.834 22.9376C14.6494 23.3916 15.5623 23.6437 16.4961 23.6716C13.9188 21.9492 13.1243 18.5208 14.6807 15.8403C17.6588 19.5045 22.0527 21.732 26.7694 21.9678C26.2967 19.9307 26.9425 17.7961 28.4664 16.3641C30.8289 14.1435 34.5445 14.2573 36.7652 16.6184C38.0788 16.3594 39.338 15.8774 40.4901 15.1945C40.0523 16.5522 39.1359 17.7055 37.9116 18.4383C39.0743 18.3013 40.2102 17.99 41.2799 17.515C40.4925 18.695 39.5006 19.7228 38.353 20.5532Z" fill="#BCBCBC"/>
</g>
</g>
</g>
<defs>
<clipPath id="clip0_35_427">
<rect width="28.59" height="28.59" fill="white" transform="translate(12.6899 12.09)"/>
</clipPath>
<clipPath id="clip1_35_427">
<rect width="28.59" height="28.59" fill="white" transform="translate(12.6899 12.09)"/>
</clipPath>
<clipPath id="clip2_35_427">
<rect width="28.59" height="28.59" fill="white" transform="translate(12.6899 12.09)"/>
</clipPath>
</defs>
</svg>
